<svg xmlns="http://www.w3.org/2000/svg" xmlns:xlink="http://www.w3.org/1999/xlink" width="1080"
    zoomAndPan="magnify" viewBox="0 0 810 809.999993" height="1080"
    preserveAspectRatio="xMidYMid meet" version="1.0">
    <defs>
        <g />
    </defs>
    <rect x="-81" width="972" fill="#ffffff" y="-80.999999" height="971.999992" fill-opacity="1" />
    <rect x="-81" width="972" fill="#ffffff" y="-80.999999" height="971.999992" fill-opacity="1" />
    <g fill="#000000" fill-opacity="1">
        <g transform="translate(258.793951, 914.135644)">
            <g>
                <path
                    d="M 37.71875 -771.734375 C 37.71875 -853.941406 57.300781 -917.046875 96.46875 -961.046875 C 135.632812 -1005.046875 194.382812 -1027.046875 272.71875 -1027.046875 C 351.050781 -1027.046875 409.800781 -1005.046875 448.96875 -961.046875 C 488.132812 -917.046875 507.71875 -853.941406 507.71875 -771.734375 L 507.71875 -739.828125 L 356.859375 -739.828125 L 356.859375 -781.890625 C 356.859375 -818.640625 349.84375 -844.507812 335.8125 -859.5 C 321.789062 -874.488281 302.210938 -881.984375 277.078125 -881.984375 C 251.929688 -881.984375 232.34375 -874.488281 218.3125 -859.5 C 204.289062 -844.507812 197.28125 -818.640625 197.28125 -781.890625 C 197.28125 -747.078125 205.015625 -716.375 220.484375 -689.78125 C 235.960938 -663.1875 255.304688 -638.039062 278.515625 -614.34375 C 301.734375 -590.65625 326.640625 -566.960938 353.234375 -543.265625 C 379.828125 -519.566406 404.726562 -493.695312 427.9375 -465.65625 C 451.144531 -437.613281 470.484375 -405.695312 485.953125 -369.90625 C 501.429688 -334.125 509.171875 -292.054688 509.171875 -243.703125 C 509.171875 -161.503906 489.101562 -98.398438 448.96875 -54.390625 C 408.832031 -10.390625 349.597656 11.609375 271.265625 11.609375 C 192.929688 11.609375 133.695312 -10.390625 93.5625 -54.390625 C 53.425781 -98.398438 33.359375 -161.503906 33.359375 -243.703125 L 33.359375 -306.078125 L 184.234375 -306.078125 L 184.234375 -233.546875 C 184.234375 -196.796875 191.726562 -171.164062 206.71875 -156.65625 C 221.707031 -142.15625 241.773438 -134.90625 266.921875 -134.90625 C 292.066406 -134.90625 312.132812 -142.15625 327.125 -156.65625 C 342.113281 -171.164062 349.609375 -196.796875 349.609375 -233.546875 C 349.609375 -268.367188 341.867188 -299.078125 326.390625 -325.671875 C 310.921875 -352.265625 291.578125 -377.40625 268.359375 -401.09375 C 245.148438 -424.789062 220.25 -448.484375 193.65625 -472.171875 C 167.0625 -495.867188 142.160156 -521.738281 118.953125 -549.78125 C 95.742188 -577.832031 76.398438 -609.75 60.921875 -645.53125 C 45.453125 -681.3125 37.71875 -723.378906 37.71875 -771.734375 Z M 37.71875 -771.734375 " />
            </g>
        </g>
    </g>
    <g fill="#000000" fill-opacity="1">
        <g transform="translate(14.490558, 636.254381)">
            <g>
                <path
                    d="M 51.859375 -907.5625 L 194.484375 -907.5625 L 194.484375 -129.65625 L 429.140625 -129.65625 L 429.140625 0 L 51.859375 0 Z M 51.859375 -907.5625 " />
            </g>
        </g>
    </g>
</svg>